<svg xmlns="http://www.w3.org/2000/svg" width="259.472" height="33.754" viewBox="0 0 259.472 33.754"><g transform="translate(-136 -317)"><g transform="translate(-51.097 202.548)"><path d="M203.25,114.222a16.839,16.839,0,0,0-12.781,6.738,16.364,16.364,0,0,0-1.635,2.657,16.657,16.657,0,0,0-1.675,6,17.1,17.1,0,0,0,.582,6.114,16.877,16.877,0,1,0,17.694-21.456A16.616,16.616,0,0,0,203.25,114.222Z" transform="translate(0 0.244)" fill="#da1c5c"/><path d="M561.069,116.684a16.841,16.841,0,0,0-12.778,6.738,16.2,16.2,0,0,0-1.633,2.657,16.69,16.69,0,0,0-1.677,6,17.091,17.091,0,0,0,.584,6.114,16.881,16.881,0,1,0,17.7-21.458A16.438,16.438,0,0,0,561.069,116.684Z" transform="translate(-285.822 -2.216)" fill="#00a79d"/><path d="M370.759,120.173c-1.858,1.858-3.379,3.391-3.379,3.4s2.267,2.287,5.034,5.054l5.036,5.036-5.036,5.036c-2.769,2.767-5.034,5.044-5.034,5.054s6.748,6.785,6.785,6.785,2.287-2.267,5.054-5.034l5.036-5.036,5.036,5.036c2.767,2.769,5.046,5.034,5.054,5.034s6.785-6.758,6.785-6.785-2.265-2.287-5.034-5.054l-5.036-5.036,5.036-5.036c2.769-2.769,5.034-5.044,5.034-5.054s-6.748-6.785-6.785-6.785-2.287,2.267-5.054,5.034l-5.036,5.036-5.036-5.036c-2.769-2.769-5.044-5.034-5.054-5.034S372.624,118.311,370.759,120.173Z" transform="translate(-144.283 -2.338)" fill="#662d91"/></g><path d="M2.064-15.84C1.872-6.768,9.7.672,18.72.528A15.537,15.537,0,0,0,32.3-6.768L28.464-9.6a11.091,11.091,0,0,1-9.7,5.472A11.311,11.311,0,0,1,7.344-15.84,11.311,11.311,0,0,1,18.768-27.552a11.091,11.091,0,0,1,9.7,5.472l3.84-2.832a15.713,15.713,0,0,0-13.584-7.3C9.7-32.352,1.872-24.912,2.064-15.84ZM38.4,0h5.088V-14.5H59.424V0h5.088V-31.68H59.424v12.624H43.488V-31.68H38.4ZM93.792,0h5.472L85.3-32.208H83.568L69.6,0h5.424L77.28-5.28H91.536Zm-4.08-9.648H79.1l5.328-13.1ZM104.3,0h5.088V-31.68H104.3Zm34.08-31.68v21.36L119.136-32.208H117.36V0h5.088V-21.456L141.744.528h1.728V-31.68Z" transform="translate(252 350)" fill="#ffffff"/></g></svg>